<svg width="100" height="100" viewBox="0 0 100 100" fill="none" xmlns="http://www.w3.org/2000/svg">
<rect width="100" height="100" rx="50" fill="#FEAE11"/>
<path d="M78.4375 32.5H71.875V30.3125C71.875 29.1522 71.4141 28.0394 70.5936 27.2189C69.7731 26.3984 68.6603 25.9375 67.5 25.9375H32.5C31.3397 25.9375 30.2269 26.3984 29.4064 27.2189C28.5859 28.0394 28.125 29.1522 28.125 30.3125V32.5H21.5625C20.4022 32.5 19.2894 32.9609 18.4689 33.7814C17.6484 34.6019 17.1875 35.7147 17.1875 36.875V41.25C17.1875 44.1508 18.3398 46.9328 20.391 48.984C21.4067 49.9996 22.6124 50.8053 23.9394 51.3549C25.2664 51.9046 26.6887 52.1875 28.125 52.1875H29.123C30.4116 56.2711 32.8685 59.8875 36.19 62.59C39.5116 65.2924 43.5522 66.9623 47.8125 67.3934V74.0625H41.25C40.6698 74.0625 40.1134 74.293 39.7032 74.7032C39.293 75.1134 39.0625 75.6698 39.0625 76.25C39.0625 76.8302 39.293 77.3866 39.7032 77.7968C40.1134 78.207 40.6698 78.4375 41.25 78.4375H58.75C59.3302 78.4375 59.8866 78.207 60.2968 77.7968C60.707 77.3866 60.9375 76.8302 60.9375 76.25C60.9375 75.6698 60.707 75.1134 60.2968 74.7032C59.8866 74.293 59.3302 74.0625 58.75 74.0625H52.1875V67.3852C60.9211 66.502 68.1672 60.3742 70.8031 52.1875H71.875C74.7758 52.1875 77.5578 51.0352 79.609 48.984C81.6602 46.9328 82.8125 44.1508 82.8125 41.25V36.875C82.8125 35.7147 82.3516 34.6019 81.5311 33.7814C80.7106 32.9609 79.5978 32.5 78.4375 32.5ZM28.125 47.8125C26.3845 47.8125 24.7153 47.1211 23.4846 45.8904C22.2539 44.6597 21.5625 42.9905 21.5625 41.25V36.875H28.125V45.625C28.125 46.3542 28.1605 47.0833 28.2316 47.8125H28.125ZM78.4375 41.25C78.4375 42.9905 77.7461 44.6597 76.5154 45.8904C75.2847 47.1211 73.6155 47.8125 71.875 47.8125H71.7383C71.828 47.0044 71.8737 46.192 71.875 45.3789V36.875H78.4375V41.25Z" fill="white"/>
</svg>
