<svg width="100" height="100" viewBox="0 0 100 100" fill="none" xmlns="http://www.w3.org/2000/svg">
<rect width="100" height="100" rx="50" fill="#FEAE11"/>
<path d="M76.25 28.125V60.9375C76.2482 61.2489 76.18 61.5564 76.0499 61.8393C75.9197 62.1223 75.7306 62.3741 75.4953 62.5781C71.3172 66.1957 67.3223 67.5 63.5133 67.5C58.3426 67.5 53.5137 65.1102 49.0211 62.8926C41.7613 59.2969 35.4504 56.1824 28.125 61.9684V74.0625C28.125 74.6427 27.8945 75.1991 27.4843 75.6093C27.0741 76.0195 26.5177 76.25 25.9375 76.25C25.3573 76.25 24.8009 76.0195 24.3907 75.6093C23.9805 75.1991 23.75 74.6427 23.75 74.0625V28.125C23.7521 27.8134 23.8208 27.5058 23.9514 27.2228C24.082 26.9399 24.2716 26.6881 24.5074 26.4844C34.3512 17.9586 43.1859 22.3254 50.9734 26.1781C58.4766 29.8914 64.9816 33.1016 72.6297 26.4844C72.9458 26.2103 73.3339 26.0327 73.7478 25.9725C74.1618 25.9124 74.5844 25.9721 74.9655 26.1448C75.3465 26.3175 75.67 26.5958 75.8977 26.9468C76.1254 27.2978 76.2477 27.7067 76.25 28.125Z" fill="white"/>
</svg>
