<svg width="100" height="100" viewBox="0 0 100 100" fill="none" xmlns="http://www.w3.org/2000/svg">
<rect width="100" height="100" rx="50" fill="#FEAE11"/>
<path d="M76.7586 43.1148C75.7277 42.0375 74.6613 40.9273 74.2594 39.9512C73.8875 39.057 73.8656 37.575 73.8437 36.1395C73.8027 33.4707 73.759 30.4465 71.6562 28.3437C69.5535 26.241 66.5293 26.1973 63.8605 26.1562C62.425 26.1344 60.943 26.1125 60.0488 25.7406C59.0754 25.3387 57.9625 24.2723 56.8852 23.2414C54.9984 21.4285 52.8547 19.375 50 19.375C47.1453 19.375 45.0043 21.4285 43.1148 23.2414C42.0375 24.2723 40.9273 25.3387 39.9512 25.7406C39.0625 26.1125 37.575 26.1344 36.1395 26.1562C33.4707 26.1973 30.4465 26.241 28.3437 28.3437C26.241 30.4465 26.2109 33.4707 26.1562 36.1395C26.1344 37.575 26.1125 39.057 25.7406 39.9512C25.3387 40.9246 24.2723 42.0375 23.2414 43.1148C21.4285 45.0016 19.375 47.1453 19.375 50C19.375 52.8547 21.4285 54.9957 23.2414 56.8852C24.2723 57.9625 25.3387 59.0727 25.7406 60.0488C26.1125 60.943 26.1344 62.425 26.1562 63.8605C26.1973 66.5293 26.241 69.5535 28.3437 71.6562C30.4465 73.759 33.4707 73.8027 36.1395 73.8437C37.575 73.8656 39.057 73.8875 39.9512 74.2594C40.9246 74.6613 42.0375 75.7277 43.1148 76.7586C45.0016 78.5715 47.1453 80.625 50 80.625C52.8547 80.625 54.9957 78.5715 56.8852 76.7586C57.9625 75.7277 59.0727 74.6613 60.0488 74.2594C60.943 73.8875 62.425 73.8656 63.8605 73.8437C66.5293 73.8027 69.5535 73.759 71.6562 71.6562C73.759 69.5535 73.8027 66.5293 73.8437 63.8605C73.8656 62.425 73.8875 60.943 74.2594 60.0488C74.6613 59.0754 75.7277 57.9625 76.7586 56.8852C78.5715 54.9984 80.625 52.8547 80.625 50C80.625 47.1453 78.5715 45.0043 76.7586 43.1148ZM62.4852 44.9852L47.1727 60.2977C46.9695 60.501 46.7282 60.6624 46.4627 60.7725C46.1971 60.8826 45.9125 60.9392 45.625 60.9392C45.3375 60.9392 45.0529 60.8826 44.7873 60.7725C44.5218 60.6624 44.2805 60.501 44.0773 60.2977L37.5148 53.7352C37.1044 53.3247 36.8738 52.768 36.8738 52.1875C36.8738 51.607 37.1044 51.0503 37.5148 50.6398C37.9253 50.2294 38.482 49.9988 39.0625 49.9988C39.643 49.9988 40.1997 50.2294 40.6102 50.6398L45.625 55.6574L59.3898 41.8898C59.5931 41.6866 59.8344 41.5254 60.0999 41.4154C60.3655 41.3054 60.6501 41.2488 60.9375 41.2488C61.2249 41.2488 61.5095 41.3054 61.7751 41.4154C62.0406 41.5254 62.2819 41.6866 62.4852 41.8898C62.6884 42.0931 62.8496 42.3344 62.9596 42.5999C63.0696 42.8655 63.1262 43.1501 63.1262 43.4375C63.1262 43.7249 63.0696 44.0095 62.9596 44.2751C62.8496 44.5406 62.6884 44.7819 62.4852 44.9852Z" fill="white"/>
</svg>
