<svg width="100" height="100" viewBox="0 0 100 100" fill="none" xmlns="http://www.w3.org/2000/svg">
<rect width="100" height="100" rx="50" fill="#FEAE11"/>
<path d="M63.1253 72.2624C64.6343 71.5829 66.0967 70.7755 67.5003 69.8468V82.5C67.5003 83.163 67.2699 83.7989 66.8596 84.2678C66.4494 84.7366 65.893 85 65.3128 85C64.7326 85 64.1762 84.7366 63.766 84.2678C63.3557 83.7989 63.1253 83.163 63.1253 82.5V72.2624ZM66.3409 44.6279L51.0281 35.2935C50.5172 34.9952 49.9243 34.9383 49.377 35.1349C48.8298 35.3316 48.372 35.766 48.1023 36.3447C47.8326 36.9234 47.7727 37.5999 47.9353 38.2287C48.098 38.8574 48.4702 39.3879 48.9719 39.706L61.758 47.4998L66.4066 44.6685L66.3409 44.6279ZM83.8413 35.2935L51.0281 15.2933C50.7116 15.1007 50.3586 15 50 15C49.6414 15 49.2884 15.1007 48.9719 15.2933L16.1587 35.2935C15.8087 35.5066 15.516 35.8245 15.3119 36.2131C15.1078 36.6018 15 37.0465 15 37.4997C15 37.953 15.1078 38.3977 15.3119 38.7863C15.516 39.1749 15.8087 39.4928 16.1587 39.706L23.7495 44.3341V59.4655C23.7472 60.6935 24.1427 61.879 24.8597 62.7936C28.4418 67.353 36.4673 74.9999 50 74.9999C54.4871 75.0424 58.9406 74.1135 63.1253 72.2624V48.3342L61.758 47.4998L50 54.6654L26.9843 40.6247L21.8354 37.4997L50 20.334L78.1646 37.4997L73.0294 40.6247H73.0129L66.4066 44.6685C66.7392 44.888 67.0154 45.2037 67.2074 45.5838C67.3994 45.964 67.5004 46.3952 67.5003 46.8341V69.8468C70.3529 67.9649 72.9307 65.5851 75.1403 62.7936C75.8573 61.879 76.2528 60.6935 76.2505 59.4655V44.3341L83.8413 39.706C84.1913 39.4928 84.484 39.1749 84.6881 38.7863C84.8922 38.3977 85 37.953 85 37.4997C85 37.0465 84.8922 36.6018 84.6881 36.2131C84.484 35.8245 84.1913 35.5066 83.8413 35.2935Z" fill="white"/>
</svg>
