<svg width="21" height="24" viewBox="0 0 21 24" fill="none" xmlns="http://www.w3.org/2000/svg">
<path d="M19.7081 10.7083C19.6152 10.8013 19.5049 10.875 19.3835 10.9253C19.2621 10.9757 19.132 11.0016 19.0006 11.0016C18.8691 11.0016 18.739 10.9757 18.6176 10.9253C18.4962 10.875 18.3859 10.8013 18.2931 10.7083L11.0006 3.41454V23.0008C11.0006 23.266 10.8952 23.5204 10.7077 23.7079C10.5201 23.8954 10.2658 24.0008 10.0006 24.0008C9.73534 24.0008 9.48099 23.8954 9.29345 23.7079C9.10591 23.5204 9.00056 23.266 9.00056 23.0008V3.41454L1.70806 10.7083C1.52042 10.8959 1.26592 11.0013 1.00056 11.0013C0.735192 11.0013 0.480697 10.8959 0.293056 10.7083C0.105415 10.5206 1.97712e-09 10.2662 0 10.0008C-1.97712e-09 9.73542 0.105415 9.48093 0.293056 9.29329L9.29306 0.293287C9.38593 0.20031 9.49622 0.126551 9.61762 0.0762269C9.73901 0.0259027 9.86914 0 10.0006 0C10.132 0 10.2621 0.0259027 10.3835 0.0762269C10.5049 0.126551 10.6152 0.20031 10.7081 0.293287L19.7081 9.29329C19.801 9.38616 19.8748 9.49645 19.9251 9.61785C19.9754 9.73924 20.0013 9.86937 20.0013 10.0008C20.0013 10.1322 19.9754 10.2623 19.9251 10.3837C19.8748 10.5051 19.801 10.6154 19.7081 10.7083Z" fill="white"/>
</svg>
