<svg width="70" height="70" viewBox="0 0 70 70" fill="none" xmlns="http://www.w3.org/2000/svg">
<path d="M35 0C28.0777 0 21.3108 2.05271 15.5551 5.89856C9.79933 9.74441 5.3133 15.2107 2.66423 21.6061C0.0151649 28.0015 -0.677952 35.0388 0.672531 41.8282C2.02301 48.6175 5.35644 54.8539 10.2513 59.7487C15.1461 64.6436 21.3825 67.977 28.1718 69.3275C34.9612 70.678 41.9985 69.9848 48.3939 67.3358C54.7893 64.6867 60.2556 60.2007 64.1014 54.4449C67.9473 48.6892 70 41.9223 70 35C69.9902 25.7204 66.2996 16.8237 59.7379 10.2621C53.1763 3.70044 44.2796 0.00979939 35 0ZM37.6923 64.4909V43.0769H45.7692C46.4833 43.0769 47.1681 42.7933 47.673 42.2884C48.1779 41.7835 48.4615 41.0987 48.4615 40.3846C48.4615 39.6706 48.1779 38.9858 47.673 38.4809C47.1681 37.976 46.4833 37.6923 45.7692 37.6923H37.6923V29.6154C37.6923 28.1873 38.2596 26.8177 39.2694 25.8079C40.2792 24.7981 41.6488 24.2308 43.0769 24.2308H48.4615C49.1756 24.2308 49.8604 23.9471 50.3653 23.4422C50.8702 22.9373 51.1538 22.2525 51.1538 21.5385C51.1538 20.8244 50.8702 20.1396 50.3653 19.6347C49.8604 19.1298 49.1756 18.8462 48.4615 18.8462H43.0769C40.2208 18.8462 37.4816 19.9808 35.4619 22.0004C33.4423 24.02 32.3077 26.7592 32.3077 29.6154V37.6923H24.2308C23.5167 37.6923 22.8319 37.976 22.327 38.4809C21.8221 38.9858 21.5385 39.6706 21.5385 40.3846C21.5385 41.0987 21.8221 41.7835 22.327 42.2884C22.8319 42.7933 23.5167 43.0769 24.2308 43.0769H32.3077V64.4909C24.7181 63.798 17.6877 60.206 12.6789 54.4619C7.6701 48.7178 5.06853 41.2639 5.4153 33.6506C5.76208 26.0373 9.03051 18.8507 14.5407 13.5857C20.051 8.32078 27.3788 5.38273 35 5.38273C42.6212 5.38273 49.949 8.32078 55.4593 13.5857C60.9695 18.8507 64.2379 26.0373 64.5847 33.6506C64.9315 41.2639 62.3299 48.7178 57.3211 54.4619C52.3123 60.206 45.2819 63.798 37.6923 64.4909Z" fill="white"/>
</svg>
