<svg width="100" height="100" viewBox="0 0 100 100" fill="none" xmlns="http://www.w3.org/2000/svg">
<rect width="100" height="100" rx="50" fill="white"/>
<path d="M50 15C43.0777 15 36.3108 17.0527 30.5551 20.8986C24.7993 24.7444 20.3133 30.2107 17.6642 36.6061C15.0152 43.0015 14.322 50.0388 15.6725 56.8282C17.023 63.6175 20.3564 69.8539 25.2513 74.7487C30.1461 79.6436 36.3825 82.977 43.1718 84.3275C49.9612 85.678 56.9985 84.9848 63.3939 82.3358C69.7893 79.6867 75.2556 75.2007 79.1014 69.4449C82.9473 63.6892 85 56.9223 85 50C84.9902 40.7204 81.2996 31.8237 74.7379 25.2621C68.1763 18.7004 59.2796 15.0098 50 15ZM52.6923 79.4909V58.0769H60.7692C61.4833 58.0769 62.1681 57.7933 62.673 57.2884C63.1779 56.7835 63.4615 56.0987 63.4615 55.3846C63.4615 54.6706 63.1779 53.9858 62.673 53.4809C62.1681 52.976 61.4833 52.6923 60.7692 52.6923H52.6923V44.6154C52.6923 43.1873 53.2596 41.8177 54.2694 40.8079C55.2792 39.7981 56.6488 39.2308 58.0769 39.2308H63.4615C64.1756 39.2308 64.8604 38.9471 65.3653 38.4422C65.8702 37.9373 66.1538 37.2525 66.1538 36.5385C66.1538 35.8244 65.8702 35.1396 65.3653 34.6347C64.8604 34.1298 64.1756 33.8462 63.4615 33.8462H58.0769C55.2208 33.8462 52.4816 34.9808 50.4619 37.0004C48.4423 39.02 47.3077 41.7592 47.3077 44.6154V52.6923H39.2308C38.5167 52.6923 37.8319 52.976 37.327 53.4809C36.8221 53.9858 36.5385 54.6706 36.5385 55.3846C36.5385 56.0987 36.8221 56.7835 37.327 57.2884C37.8319 57.7933 38.5167 58.0769 39.2308 58.0769H47.3077V79.4909C39.7181 78.798 32.6877 75.206 27.6789 69.4619C22.6701 63.7178 20.0685 56.2639 20.4153 48.6506C20.7621 41.0373 24.0305 33.8507 29.5407 28.5857C35.051 23.3208 42.3788 20.3827 50 20.3827C57.6212 20.3827 64.949 23.3208 70.4593 28.5857C75.9695 33.8507 79.2379 41.0373 79.5847 48.6506C79.9315 56.2639 77.3299 63.7178 72.3211 69.4619C67.3123 75.206 60.2819 78.798 52.6923 79.4909Z" fill="#FEAE11"/>
</svg>
