<svg width="24" height="24" viewBox="0 0 24 24" fill="none" xmlns="http://www.w3.org/2000/svg">
<path d="M22.95 14.5992C22.8712 14.6583 22.7815 14.7013 22.6861 14.7257C22.5907 14.7502 22.4914 14.7556 22.3939 14.7416C22.2964 14.7277 22.2026 14.6947 22.1179 14.6445C22.0331 14.5943 21.9591 14.528 21.9 14.4492C21.4479 13.8415 20.8595 13.3485 20.1822 13.0098C19.5048 12.6712 18.7573 12.4962 18 12.4992C17.8525 12.4992 17.7083 12.4557 17.5854 12.3741C17.4625 12.2926 17.3664 12.1766 17.3091 12.0407C17.2701 11.9485 17.2501 11.8493 17.2501 11.7492C17.2501 11.649 17.2701 11.5499 17.3091 11.4576C17.3664 11.3217 17.4625 11.2058 17.5854 11.1242C17.7083 11.0427 17.8525 10.9992 18 10.9992C18.4208 10.9991 18.8332 10.8811 19.1903 10.6584C19.5474 10.4358 19.8349 10.1174 20.0201 9.73959C20.2053 9.36173 20.2809 8.9395 20.2382 8.52086C20.1955 8.10221 20.0362 7.70393 19.7785 7.37126C19.5208 7.03859 19.175 6.78485 18.7803 6.63888C18.3856 6.49291 17.9579 6.46055 17.5457 6.54547C17.1336 6.6304 16.7535 6.82921 16.4486 7.11932C16.1438 7.40944 15.9265 7.77922 15.8212 8.18668C15.7966 8.28209 15.7534 8.37172 15.6942 8.45045C15.6349 8.52917 15.5607 8.59546 15.4759 8.64552C15.391 8.69557 15.2971 8.72842 15.1995 8.74218C15.1019 8.75595 15.0026 8.75036 14.9072 8.72574C14.8118 8.70111 14.7221 8.65794 14.6434 8.59868C14.5647 8.53942 14.4984 8.46523 14.4483 8.38035C14.3983 8.29547 14.3654 8.20156 14.3517 8.10399C14.3379 8.00642 14.3435 7.90709 14.3681 7.81168C14.5141 7.24666 14.79 6.72352 15.1738 6.28388C15.5576 5.84424 16.0387 5.50024 16.5788 5.27925C17.1189 5.05826 17.7032 4.96638 18.285 5.01092C18.8669 5.05546 19.4304 5.23519 19.9306 5.53581C20.4308 5.83643 20.8539 6.24964 21.1663 6.74257C21.4787 7.23549 21.6717 7.79453 21.7301 8.37519C21.7884 8.95584 21.7104 9.5421 21.5023 10.0873C21.2942 10.6325 20.9617 11.1216 20.5312 11.5157C21.5511 11.9573 22.4376 12.658 23.1028 13.5482C23.1619 13.6272 23.2048 13.7171 23.2291 13.8127C23.2534 13.9083 23.2586 14.0078 23.2444 14.1054C23.2302 14.203 23.1969 14.2969 23.1464 14.3816C23.0959 14.4664 23.0291 14.5403 22.95 14.5992ZM17.8987 20.3742C17.953 20.4595 17.9895 20.555 18.0059 20.6548C18.0223 20.7546 18.0183 20.8567 17.9943 20.955C17.9702 21.0532 17.9265 21.1456 17.8658 21.2265C17.8051 21.3074 17.7287 21.3752 17.6411 21.4259C17.5536 21.4765 17.4567 21.5089 17.3562 21.5211C17.2558 21.5333 17.154 21.525 17.0568 21.4968C16.9597 21.4686 16.8693 21.4211 16.791 21.3571C16.7127 21.293 16.6481 21.2138 16.6012 21.1242C16.1288 20.3242 15.4559 19.6612 14.649 19.2006C13.8421 18.74 12.9291 18.4978 12 18.4978C11.0709 18.4978 10.1579 18.74 9.35097 19.2006C8.54408 19.6612 7.8712 20.3242 7.39875 21.1242C7.35186 21.2138 7.28733 21.293 7.20903 21.3571C7.13074 21.4211 7.0403 21.4686 6.94315 21.4968C6.846 21.525 6.74416 21.5333 6.64375 21.5211C6.54333 21.5089 6.44643 21.4765 6.35885 21.4259C6.27128 21.3752 6.19485 21.3074 6.13416 21.2265C6.07347 21.1456 6.02979 21.0532 6.00572 20.955C5.98165 20.8567 5.97771 20.7546 5.99413 20.6548C6.01055 20.555 6.04698 20.4595 6.10125 20.3742C6.82837 19.1248 7.93705 18.1417 9.26437 17.5692C8.51749 16.9973 7.96859 16.2058 7.69481 15.3059C7.42103 14.406 7.43615 13.4429 7.73804 12.552C8.03993 11.6611 8.61341 10.8872 9.37788 10.3391C10.1423 9.79095 11.0593 9.49617 12 9.49617C12.9407 9.49617 13.8577 9.79095 14.6221 10.3391C15.3866 10.8872 15.9601 11.6611 16.262 12.552C16.5638 13.4429 16.579 14.406 16.3052 15.3059C16.0314 16.2058 15.4825 16.9973 14.7356 17.5692C16.0629 18.1417 17.1716 19.1248 17.8987 20.3742ZM12 16.9992C12.5933 16.9992 13.1734 16.8232 13.6667 16.4936C14.1601 16.1639 14.5446 15.6954 14.7716 15.1472C14.9987 14.599 15.0581 13.9958 14.9424 13.4139C14.8266 12.832 14.5409 12.2974 14.1213 11.8779C13.7018 11.4583 13.1672 11.1726 12.5853 11.0568C12.0033 10.9411 11.4001 11.0005 10.8519 11.2275C10.3038 11.4546 9.83523 11.8391 9.50559 12.3325C9.17595 12.8258 9 13.4058 9 13.9992C9 14.7948 9.31607 15.5579 9.87868 16.1205C10.4413 16.6831 11.2043 16.9992 12 16.9992ZM6.75 11.7492C6.75 11.5503 6.67098 11.3595 6.53033 11.2188C6.38968 11.0782 6.19891 10.9992 6 10.9992C5.57918 10.9991 5.16681 10.8811 4.80972 10.6584C4.45263 10.4358 4.16514 10.1174 3.9799 9.73959C3.79467 9.36173 3.71911 8.9395 3.76181 8.52086C3.80451 8.10221 3.96376 7.70393 4.22147 7.37126C4.47919 7.03859 4.82503 6.78485 5.21972 6.63888C5.6144 6.49291 6.04212 6.46055 6.45428 6.54547C6.86644 6.6304 7.24652 6.82921 7.55135 7.11932C7.85618 7.40944 8.07354 7.77922 8.17875 8.18668C8.22848 8.37937 8.35272 8.54442 8.52414 8.64552C8.69556 8.74661 8.90011 8.77547 9.09281 8.72574C9.28551 8.67601 9.45056 8.55177 9.55165 8.38035C9.65274 8.20893 9.6816 8.00437 9.63187 7.81168C9.48585 7.24666 9.20998 6.72352 8.8262 6.28388C8.44242 5.84424 7.96133 5.50024 7.4212 5.27925C6.88108 5.05826 6.29684 4.96638 5.71496 5.01092C5.13308 5.05546 4.56962 5.23519 4.06943 5.53581C3.56923 5.83643 3.1461 6.24964 2.8337 6.74257C2.52131 7.23549 2.32826 7.79453 2.26994 8.37519C2.21161 8.95584 2.28961 9.5421 2.49773 10.0873C2.70584 10.6325 3.03834 11.1216 3.46875 11.5157C2.44995 11.9577 1.56442 12.6584 0.899998 13.5482C0.780527 13.7074 0.729162 13.9074 0.757205 14.1044C0.785247 14.3014 0.8904 14.4792 1.04953 14.5987C1.20866 14.7182 1.40873 14.7695 1.60573 14.7415C1.80273 14.7135 1.98053 14.6083 2.1 14.4492C2.55205 13.8415 3.14045 13.3485 3.81783 13.0098C4.49522 12.6712 5.24266 12.4962 6 12.4992C6.19891 12.4992 6.38968 12.4202 6.53033 12.2795C6.67098 12.1389 6.75 11.9481 6.75 11.7492Z" fill="#FEAE11"/>
</svg>
