<svg width="40" height="40" viewBox="0 0 40 40" fill="none" xmlns="http://www.w3.org/2000/svg">
<path d="M20 12.5C18.5166 12.5 17.0666 12.9399 15.8332 13.764C14.5999 14.5881 13.6386 15.7594 13.0709 17.1299C12.5032 18.5003 12.3547 20.0083 12.6441 21.4632C12.9335 22.918 13.6478 24.2544 14.6967 25.3033C15.7456 26.3522 17.082 27.0665 18.5368 27.3559C19.9917 27.6453 21.4997 27.4968 22.8701 26.9291C24.2406 26.3614 25.4119 25.4001 26.236 24.1668C27.0601 22.9334 27.5 21.4834 27.5 20C27.4979 18.0115 26.7071 16.1051 25.301 14.699C23.8949 13.2929 21.9885 12.5021 20 12.5ZM20 25C19.0111 25 18.0444 24.7068 17.2221 24.1573C16.3999 23.6079 15.759 22.827 15.3806 21.9134C15.0022 20.9998 14.9031 19.9945 15.0961 19.0245C15.289 18.0546 15.7652 17.1637 16.4645 16.4645C17.1637 15.7652 18.0546 15.289 19.0245 15.0961C19.9945 14.9031 20.9998 15.0022 21.9134 15.3806C22.827 15.759 23.6079 16.3999 24.1573 17.2221C24.7068 18.0444 25 19.0111 25 20C25 21.3261 24.4732 22.5979 23.5355 23.5355C22.5979 24.4732 21.3261 25 20 25ZM27.5 3.75H12.5C10.1801 3.75248 7.95596 4.67515 6.31556 6.31556C4.67515 7.95596 3.75248 10.1801 3.75 12.5V27.5C3.75248 29.8199 4.67515 32.044 6.31556 33.6844C7.95596 35.3249 10.1801 36.2475 12.5 36.25H27.5C29.8199 36.2475 32.044 35.3249 33.6844 33.6844C35.3249 32.044 36.2475 29.8199 36.25 27.5V12.5C36.2475 10.1801 35.3249 7.95596 33.6844 6.31556C32.044 4.67515 29.8199 3.75248 27.5 3.75ZM33.75 27.5C33.75 29.1576 33.0915 30.7473 31.9194 31.9194C30.7473 33.0915 29.1576 33.75 27.5 33.75H12.5C10.8424 33.75 9.25269 33.0915 8.08058 31.9194C6.90848 30.7473 6.25 29.1576 6.25 27.5V12.5C6.25 10.8424 6.90848 9.25269 8.08058 8.08058C9.25269 6.90848 10.8424 6.25 12.5 6.25H27.5C29.1576 6.25 30.7473 6.90848 31.9194 8.08058C33.0915 9.25269 33.75 10.8424 33.75 12.5V27.5ZM30 11.875C30 12.2458 29.89 12.6084 29.684 12.9167C29.478 13.225 29.1851 13.4654 28.8425 13.6073C28.4999 13.7492 28.1229 13.7863 27.7592 13.714C27.3955 13.6416 27.0614 13.463 26.7992 13.2008C26.537 12.9386 26.3584 12.6045 26.286 12.2408C26.2137 11.8771 26.2508 11.5001 26.3927 11.1575C26.5346 10.8149 26.775 10.522 27.0833 10.316C27.3916 10.11 27.7542 10 28.125 10C28.6223 10 29.0992 10.1975 29.4508 10.5492C29.8025 10.9008 30 11.3777 30 11.875Z" fill="#FEAE11"/>
</svg>
