<svg width="40" height="40" viewBox="0 0 40 40" fill="none" xmlns="http://www.w3.org/2000/svg">
<path d="M29.3094 22.6312L24.3094 20.1312C24.1126 20.0332 23.8934 19.9888 23.6739 20.0025C23.4544 20.0162 23.2425 20.0876 23.0594 20.2094L20.7641 21.7406C19.7104 21.1614 18.8433 20.2943 18.2641 19.2406L19.7953 16.9453C19.9171 16.7622 19.9885 16.5503 20.0022 16.3308C20.0159 16.1113 19.9715 15.8921 19.8734 15.6953L17.3734 10.6953C17.2698 10.486 17.1097 10.31 16.9111 10.1871C16.7125 10.0642 16.4835 9.99939 16.25 10C14.5924 10 13.0027 10.6585 11.8306 11.8306C10.6585 13.0027 10 14.5924 10 16.25C10.0041 19.8955 11.4541 23.3904 14.0319 25.9682C16.6096 28.5459 20.1045 29.9959 23.75 30C24.5708 30 25.3835 29.8383 26.1418 29.5242C26.9001 29.2102 27.5891 28.7498 28.1694 28.1694C28.7498 27.5891 29.2102 26.9001 29.5243 26.1418C29.8383 25.3835 30 24.5708 30 23.75C30.0002 23.5178 29.9356 23.2901 29.8137 23.0925C29.6917 22.8949 29.5171 22.7352 29.3094 22.6312ZM23.75 27.5C20.7673 27.4967 17.9078 26.3104 15.7987 24.2013C13.6896 22.0922 12.5033 19.2327 12.5 16.25C12.4998 15.383 12.7999 14.5427 13.3495 13.8721C13.899 13.2015 14.6639 12.742 15.5141 12.5719L17.3078 16.1656L15.7813 18.4375C15.6672 18.6086 15.5971 18.8052 15.5772 19.0099C15.5573 19.2146 15.5882 19.4211 15.6672 19.6109C16.5615 21.7365 18.2525 23.4275 20.3781 24.3219C20.5686 24.4044 20.7766 24.4381 20.9834 24.4201C21.1901 24.4021 21.3892 24.3329 21.5625 24.2188L23.8453 22.6969L27.4391 24.4906C27.2676 25.3417 26.8061 26.107 26.1333 26.6558C25.4606 27.2046 24.6182 27.503 23.75 27.5ZM20 3.75C17.1945 3.74939 14.4366 4.47514 11.9948 5.85661C9.55296 7.23808 7.51039 9.22821 6.0659 11.6333C4.62141 14.0384 3.8242 16.7764 3.75186 19.581C3.67953 22.3856 4.33454 25.1612 5.65313 27.6375L3.87969 32.9578C3.7328 33.3983 3.71148 33.871 3.81813 34.3229C3.92478 34.7749 4.15519 35.1881 4.48352 35.5165C4.81186 35.8448 5.22515 36.0752 5.67708 36.1819C6.12901 36.2885 6.6017 36.2672 7.04219 36.1203L12.3625 34.3469C14.5418 35.506 16.9566 36.1534 19.4235 36.24C21.8904 36.3266 24.3446 35.85 26.5998 34.8465C28.855 33.8429 30.852 32.3388 32.4391 30.4483C34.0262 28.5577 35.1618 26.3304 35.7596 23.9355C36.3574 21.5406 36.4017 19.0409 35.8893 16.6263C35.3768 14.2117 34.321 11.9455 32.8019 9.99987C31.2829 8.05421 29.3405 6.48019 27.1224 5.39727C24.9042 4.31436 22.4684 3.75101 20 3.75ZM20 33.75C17.5828 33.7516 15.208 33.1151 13.1156 31.9047C12.9624 31.8158 12.7921 31.7606 12.6159 31.7425C12.4398 31.7245 12.2618 31.7441 12.0938 31.8L6.25001 33.75L8.19844 27.9062C8.25461 27.7383 8.27446 27.5604 8.25668 27.3842C8.2389 27.2081 8.1839 27.0377 8.09532 26.8844C6.57965 24.2639 5.97111 21.2165 6.36411 18.2149C6.75712 15.2133 8.12968 12.4253 10.2689 10.2834C12.4081 8.14151 15.1944 6.76542 18.1955 6.36863C21.1966 5.97184 24.2447 6.57652 26.8671 8.08888C29.4894 9.60124 31.5394 11.9367 32.699 14.733C33.8586 17.5294 34.0629 20.6302 33.2804 23.5545C32.4978 26.4788 30.7721 29.0632 28.3709 30.9066C25.9697 32.75 23.0272 33.7495 20 33.75Z" fill="#FEAE11"/>
</svg>
