<svg width="40" height="40" viewBox="0 0 40 40" fill="none" xmlns="http://www.w3.org/2000/svg">
<path d="M25.6938 18.9594L18.1938 13.9594C18.0055 13.8338 17.7866 13.7616 17.5605 13.7507C17.3344 13.7397 17.1096 13.7903 16.91 13.8972C16.7105 14.004 16.5437 14.163 16.4274 14.3573C16.3112 14.5515 16.2499 14.7736 16.25 15V25C16.2499 25.2264 16.3112 25.4485 16.4274 25.6427C16.5437 25.837 16.7105 25.996 16.91 26.1028C17.1096 26.2097 17.3344 26.2603 17.5605 26.2494C17.7866 26.2384 18.0055 26.1663 18.1938 26.0406L25.6938 21.0406C25.8652 20.9265 26.0058 20.7718 26.1031 20.5903C26.2003 20.4087 26.2512 20.206 26.2512 20C26.2512 19.794 26.2003 19.5913 26.1031 19.4097C26.0058 19.2282 25.8652 19.0735 25.6938 18.9594ZM18.75 22.6641V17.3438L22.7469 20L18.75 22.6641ZM36.6141 10.8625C36.4668 10.2865 36.1848 9.75373 35.7911 9.30818C35.3974 8.86264 34.9035 8.51707 34.35 8.30001C28.9937 6.23126 20.4688 6.25001 20 6.25001C19.5312 6.25001 11.0062 6.23126 5.65 8.30001C5.0965 8.51707 4.60255 8.86264 4.2089 9.30818C3.81524 9.75373 3.53316 10.2865 3.38594 10.8625C2.98125 12.4219 2.5 15.2719 2.5 20C2.5 24.7281 2.98125 27.5781 3.38594 29.1375C3.53294 29.7138 3.81492 30.2469 4.20859 30.6927C4.60226 31.1385 5.09633 31.4843 5.65 31.7016C10.7812 33.6813 18.8125 33.75 19.8969 33.75H20.1031C21.1875 33.75 29.2234 33.6813 34.35 31.7016C34.9037 31.4843 35.3977 31.1385 35.7914 30.6927C36.1851 30.2469 36.4671 29.7138 36.6141 29.1375C37.0187 27.575 37.5 24.7281 37.5 20C37.5 15.2719 37.0187 12.4219 36.6141 10.8625ZM34.1937 28.5188C34.1461 28.7105 34.0538 28.8881 33.9242 29.0373C33.7947 29.1864 33.6316 29.3026 33.4484 29.3766C28.5031 31.2859 20.0922 31.2516 20.0109 31.2516H20C19.9156 31.2516 11.5109 31.2828 6.5625 29.3766C6.37933 29.3026 6.21628 29.1864 6.08673 29.0373C5.95718 28.8881 5.86481 28.7105 5.81719 28.5188C5.4375 27.0922 5 24.4641 5 20C5 15.5359 5.4375 12.9078 5.80625 11.4891C5.85298 11.2962 5.94495 11.1173 6.07456 10.967C6.20416 10.8168 6.36767 10.6995 6.55156 10.625C11.3203 8.78282 19.3109 8.75001 19.9656 8.75001H20.0078C20.0922 8.75001 28.5047 8.72188 33.4453 10.625C33.6285 10.6989 33.7915 10.8152 33.9211 10.9643C34.0506 11.1134 34.143 11.2911 34.1906 11.4828C34.5625 12.9078 35 15.5359 35 20C35 24.4641 34.5625 27.0922 34.1937 28.5109V28.5188Z" fill="#FEAE11"/>
</svg>
